<svg version="1.1" viewBox="0.0 0.0 960.0 540.0" fill="none" stroke="none" stroke-linecap="square" stroke-miterlimit="10" xmlns:xlink="http://www.w3.org/1999/xlink" xmlns="http://www.w3.org/2000/svg"><clipPath id="g19bcbf1f760_0_0.0"><path d="m0 0l960.0 0l0 540.0l-960.0 0l0 -540.0z" clip-rule="nonzero"/></clipPath><g clip-path="url(#g19bcbf1f760_0_0.0)"><path fill="#ffffff" d="m0 0l960.0 0l0 540.0l-960.0 0z" fill-rule="evenodd"/><path fill="#ffffff" d="m282.10236 182.51968l0 0c0 -14.585541 18.980316 -26.409454 42.393707 -26.409454l0 0c23.413391 0 42.393707 11.823914 42.393707 26.409454l0 0c0 14.585541 -18.980316 26.409454 -42.393707 26.409454l0 0c-23.413391 0 -42.393707 -11.823914 -42.393707 -26.409454z" fill-rule="evenodd"/><path stroke="#000000" stroke-width="1.0" stroke-linejoin="round" stroke-linecap="butt" d="m282.10236 182.51968l0 0c0 -14.585541 18.980316 -26.409454 42.393707 -26.409454l0 0c23.413391 0 42.393707 11.823914 42.393707 26.409454l0 0c0 14.585541 -18.980316 26.409454 -42.393707 26.409454l0 0c-23.413391 0 -42.393707 -11.823914 -42.393707 -26.409454z" fill-rule="evenodd"/><path fill="#000000" d="m309.5262 184.25719l1.203125 -0.109375q0.078125 0.71875 0.390625 1.1875q0.3125 0.453125 0.953125 0.734375q0.65625 0.28125 1.46875 0.28125q0.71875 0 1.265625 -0.21875q0.5625 -0.21875 0.828125 -0.578125q0.265625 -0.375 0.265625 -0.828125q0 -0.453125 -0.265625 -0.78125q-0.25 -0.328125 -0.84375 -0.5625q-0.390625 -0.15625 -1.703125 -0.46875q-1.3125 -0.3125 -1.84375 -0.59375q-0.671875 -0.359375 -1.015625 -0.890625q-0.328125 -0.53125 -0.328125 -1.1875q0 -0.71875 0.40625 -1.34375q0.40625 -0.625 1.1875 -0.953125q0.796875 -0.328125 1.765625 -0.328125q1.046875 0 1.859375 0.34375q0.8125 0.34375 1.25 1.015625q0.4375 0.65625 0.46875 1.484375l-1.203125 0.09375q-0.109375 -0.90625 -0.671875 -1.359375q-0.5625 -0.46875 -1.65625 -0.46875q-1.140625 0 -1.671875 0.421875q-0.515625 0.421875 -0.515625 1.015625q0 0.515625 0.359375 0.84375q0.375 0.328125 1.90625 0.6875q1.546875 0.34375 2.109375 0.59375q0.84375 0.390625 1.234375 0.984375q0.390625 0.578125 0.390625 1.359375q0 0.75 -0.4375 1.4375q-0.421875 0.671875 -1.25 1.046875q-0.8125 0.359375 -1.828125 0.359375q-1.296875 0 -2.171875 -0.375q-0.875 -0.375 -1.375 -1.125q-0.5 -0.765625 -0.53125 -1.71875zm13.9053955 0.84375l1.203125 0.140625q-0.28125 1.0625 -1.0625 1.65625q-0.765625 0.578125 -1.96875 0.578125q-1.515625 0 -2.40625 -0.9375q-0.890625 -0.9375 -0.890625 -2.609375q0 -1.75 0.890625 -2.703125q0.90625 -0.96875 2.34375 -0.96875q1.390625 0 2.265625 0.9375q0.875 0.9375 0.875 2.65625q0 0.109375 0 0.3125l-5.15625 0q0.0625 1.140625 0.640625 1.75q0.578125 0.59375 1.4375 0.59375q0.65625 0 1.109375 -0.328125q0.453125 -0.34375 0.71875 -1.078125zm-3.84375 -1.90625l3.859375 0q-0.078125 -0.859375 -0.4375 -1.296875q-0.5625 -0.6875 -1.453125 -0.6875q-0.8125 0 -1.359375 0.546875q-0.546875 0.53125 -0.609375 1.4375zm6.5218506 4.125l0 -6.90625l1.0625 0l0 0.984375q0.75 -1.140625 2.1875 -1.140625q0.625 0 1.15625 0.21875q0.53125 0.21875 0.78125 0.59375q0.265625 0.359375 0.375 0.859375q0.0625 0.328125 0.0625 1.140625l0 4.25l-1.171875 0l0 -4.203125q0 -0.71875 -0.140625 -1.0625q-0.140625 -0.359375 -0.484375 -0.5625q-0.34375 -0.21875 -0.8125 -0.21875q-0.75 0 -1.296875 0.46875q-0.546875 0.46875 -0.546875 1.796875l0 3.78125l-1.171875 0zm11.896851 0l0 -0.875q-0.65625 1.03125 -1.9375 1.03125q-0.8125 0 -1.515625 -0.453125q-0.6875 -0.453125 -1.078125 -1.265625q-0.375 -0.828125 -0.375 -1.890625q0 -1.03125 0.34375 -1.875q0.34375 -0.84375 1.03125 -1.28125q0.703125 -0.453125 1.546875 -0.453125q0.625 0 1.109375 0.265625q0.5 0.25 0.796875 0.671875l0 -3.421875l1.171875 0l0 9.546875l-1.09375 0zm-3.703125 -3.453125q0 1.328125 0.5625 1.984375q0.5625 0.65625 1.328125 0.65625q0.765625 0 1.296875 -0.625q0.53125 -0.625 0.53125 -1.90625q0 -1.421875 -0.546875 -2.078125q-0.546875 -0.671875 -1.34375 -0.671875q-0.78125 0 -1.3125 0.640625q-0.515625 0.625 -0.515625 2.0z" fill-rule="nonzero"/><path fill="#ffffff" d="m504.51706 84.7979l0 0c0 -14.585533 18.980316 -26.409447 42.393707 -26.409447l0 0c23.413391 0 42.393677 11.823914 42.393677 26.409447l0 0c0 14.585541 -18.980286 26.409454 -42.393677 26.409454l0 0c-23.413391 0 -42.393707 -11.823914 -42.393707 -26.409454z" fill-rule="evenodd"/><path stroke="#000000" stroke-width="1.0" stroke-linejoin="round" stroke-linecap="butt" d="m504.51706 84.7979l0 0c0 -14.585533 18.980316 -26.409447 42.393707 -26.409447l0 0c23.413391 0 42.393677 11.823914 42.393677 26.409447l0 0c0 14.585541 -18.980286 26.409454 -42.393677 26.409454l0 0c-23.413391 0 -42.393707 -11.823914 -42.393707 -26.409454z" fill-rule="evenodd"/><path fill="#000000" d="m532.7748 89.5979l0 -9.546875l4.234375 0q1.265625 0 1.921875 0.265625q0.671875 0.25 1.0625 0.90625q0.40625 0.65625 0.40625 1.4375q0 1.015625 -0.65625 1.71875q-0.65625 0.6875 -2.03125 0.875q0.5 0.25 0.765625 0.484375q0.546875 0.5 1.046875 1.265625l1.65625 2.59375l-1.578125 0l-1.265625 -1.984375q-0.5625 -0.859375 -0.921875 -1.3125q-0.34375 -0.453125 -0.640625 -0.640625q-0.28125 -0.1875 -0.5625 -0.25q-0.21875 -0.046875 -0.703125 -0.046875l-1.46875 0l0 4.234375l-1.265625 0zm1.265625 -5.328125l2.71875 0q0.859375 0 1.34375 -0.171875q0.484375 -0.1875 0.734375 -0.578125q0.265625 -0.390625 0.265625 -0.859375q0 -0.671875 -0.5 -1.109375q-0.484375 -0.4375 -1.546875 -0.4375l-3.015625 0l0 3.15625zm12.921997 3.109375l1.203125 0.140625q-0.28125 1.0625 -1.0625 1.65625q-0.765625 0.578125 -1.96875 0.578125q-1.515625 0 -2.40625 -0.9375q-0.890625 -0.9375 -0.890625 -2.609375q0 -1.75 0.890625 -2.703125q0.90625 -0.96875 2.34375 -0.96875q1.390625 0 2.265625 0.9375q0.875 0.9375 0.875 2.65625q0 0.109375 0 0.3125l-5.15625 0q0.0625 1.140625 0.640625 1.75q0.578125 0.59375 1.4375 0.59375q0.65625 0 1.109375 -0.328125q0.453125 -0.34375 0.71875 -1.078125zm-3.84375 -1.90625l3.859375 0q-0.078125 -0.859375 -0.4375 -1.296875q-0.5625 -0.6875 -1.453125 -0.6875q-0.8125 0 -1.359375 0.546875q-0.546875 0.53125 -0.609375 1.4375zm11.037476 1.59375l1.15625 0.15625q-0.1875 1.1875 -0.96875 1.859375q-0.78125 0.671875 -1.921875 0.671875q-1.40625 0 -2.28125 -0.921875q-0.859375 -0.9375 -0.859375 -2.65625q0 -1.125 0.375 -1.96875q0.375 -0.84375 1.125 -1.25q0.765625 -0.421875 1.65625 -0.421875q1.125 0 1.84375 0.578125q0.71875 0.5625 0.921875 1.609375l-1.140625 0.171875q-0.171875 -0.703125 -0.59375 -1.046875q-0.40625 -0.359375 -0.984375 -0.359375q-0.890625 0 -1.453125 0.640625q-0.546875 0.640625 -0.546875 2.0q0 1.40625 0.53125 2.03125q0.546875 0.625 1.40625 0.625q0.6875 0 1.140625 -0.421875q0.46875 -0.421875 0.59375 -1.296875zm4.0703125 2.53125l-2.625 -6.90625l1.234375 0l1.484375 4.140625q0.234375 0.65625 0.4375 1.390625q0.15625 -0.546875 0.4375 -1.3125l1.53125 -4.21875l1.21875 0l-2.625 6.90625l-1.09375 0z" fill-rule="nonzero"/><path fill="#ffffff" d="m509.6063 336.40945l0 0c0 -14.585541 18.980316 -26.409454 42.393707 -26.409454l0 0c23.413391 0 42.393677 11.823914 42.393677 26.409454l0 0c0 14.585541 -18.980286 26.409454 -42.393677 26.409454l0 0c-23.413391 0 -42.393707 -11.823914 -42.393707 -26.409454z" fill-rule="evenodd"/><path stroke="#000000" stroke-width="1.0" stroke-linejoin="round" stroke-linecap="butt" d="m509.6063 336.40945l0 0c0 -14.585541 18.980316 -26.409454 42.393707 -26.409454l0 0c23.413391 0 42.393677 11.823914 42.393677 26.409454l0 0c0 14.585541 -18.980286 26.409454 -42.393677 26.409454l0 0c-23.413391 0 -42.393707 -11.823914 -42.393707 -26.409454z" fill-rule="evenodd"/><path fill="#000000" d="m537.864 333.20944l0 -9.546875l4.234375 0q1.265625 0 1.921875 0.265625q0.671875 0.25 1.0625 0.90625q0.40625 0.65625 0.40625 1.4375q0 1.015625 -0.65625 1.71875q-0.65625 0.6875 -2.03125 0.875q0.5 0.25 0.765625 0.484375q0.546875 0.5 1.046875 1.265625l1.65625 2.59375l-1.578125 0l-1.265625 -1.984375q-0.5625 -0.859375 -0.921875 -1.3125q-0.34375 -0.453125 -0.640625 -0.640625q-0.28125 -0.1875 -0.5625 -0.25q-0.21875 -0.046875 -0.703125 -0.046875l-1.46875 0l0 4.234375l-1.265625 0zm1.265625 -5.328125l2.71875 0q0.859375 0 1.34375 -0.171875q0.484375 -0.1875 0.734375 -0.578125q0.265625 -0.390625 0.265625 -0.859375q0 -0.671875 -0.5 -1.109375q-0.484375 -0.4375 -1.546875 -0.4375l-3.015625 0l0 3.15625zm12.921997 3.109375l1.203125 0.140625q-0.28125 1.0625 -1.0625 1.65625q-0.765625 0.578125 -1.96875 0.578125q-1.515625 0 -2.40625 -0.9375q-0.890625 -0.9375 -0.890625 -2.609375q0 -1.75 0.890625 -2.703125q0.90625 -0.96875 2.34375 -0.96875q1.390625 0 2.265625 0.9375q0.875 0.9375 0.875 2.65625q0 0.109375 0 0.3125l-5.15625 0q0.0625 1.140625 0.640625 1.75q0.578125 0.59375 1.4375 0.59375q0.65625 0 1.109375 -0.328125q0.453125 -0.34375 0.71875 -1.078125zm-3.84375 -1.90625l3.859375 0q-0.078125 -0.859375 -0.4375 -1.296875q-0.5625 -0.6875 -1.453125 -0.6875q-0.8125 0 -1.359375 0.546875q-0.546875 0.53125 -0.609375 1.4375zm11.037476 1.59375l1.15625 0.15625q-0.1875 1.1875 -0.96875 1.859375q-0.78125 0.671875 -1.921875 0.671875q-1.40625 0 -2.28125 -0.921875q-0.859375 -0.9375 -0.859375 -2.65625q0 -1.125 0.375 -1.96875q0.375 -0.84375 1.125 -1.25q0.765625 -0.421875 1.65625 -0.421875q1.125 0 1.84375 0.578125q0.71875 0.5625 0.921875 1.609375l-1.140625 0.171875q-0.171875 -0.703125 -0.59375 -1.046875q-0.40625 -0.359375 -0.984375 -0.359375q-0.890625 0 -1.453125 0.640625q-0.546875 0.640625 -0.546875 2.0q0 1.40625 0.53125 2.03125q0.546875 0.625 1.40625 0.625q0.6875 0 1.140625 -0.421875q0.46875 -0.421875 0.59375 -1.296875zm4.0703125 2.53125l-2.625 -6.90625l1.234375 0l1.484375 4.140625q0.234375 0.65625 0.4375 1.390625q0.15625 -0.546875 0.4375 -1.3125l1.53125 -4.21875l1.21875 0l-2.625 6.90625l-1.09375 0z" fill-rule="nonzero"/><path fill="#000000" d="m533.39374 349.20944l0 -9.546875l3.28125 0q1.109375 0 1.703125 0.140625q0.8125 0.1875 1.390625 0.6875q0.765625 0.640625 1.140625 1.640625q0.375 0.984375 0.375 2.25q0 1.09375 -0.265625 1.9375q-0.25 0.828125 -0.65625 1.390625q-0.390625 0.546875 -0.859375 0.859375q-0.46875 0.3125 -1.140625 0.484375q-0.65625 0.15625 -1.53125 0.15625l-3.4375 0zm1.265625 -1.125l2.03125 0q0.9375 0 1.46875 -0.171875q0.546875 -0.1875 0.875 -0.5q0.4375 -0.453125 0.6875 -1.203125q0.25 -0.765625 0.25 -1.84375q0 -1.5 -0.5 -2.296875q-0.484375 -0.8125 -1.1875 -1.078125q-0.5 -0.203125 -1.625 -0.203125l-2.0 0l0 7.296875zm12.937622 -1.09375l1.203125 0.140625q-0.28125 1.0625 -1.0625 1.65625q-0.765625 0.578125 -1.96875 0.578125q-1.515625 0 -2.40625 -0.9375q-0.890625 -0.9375 -0.890625 -2.609375q0 -1.75 0.890625 -2.703125q0.90625 -0.96875 2.34375 -0.96875q1.390625 0 2.265625 0.9375q0.875 0.9375 0.875 2.65625q0 0.109375 0 0.3125l-5.15625 0q0.0625 1.140625 0.640625 1.75q0.578125 0.59375 1.4375 0.59375q0.65625 0 1.109375 -0.328125q0.453125 -0.34375 0.71875 -1.078125zm-3.84375 -1.90625l3.859375 0q-0.078125 -0.859375 -0.4375 -1.296875q-0.5625 -0.6875 -1.453125 -0.6875q-0.8125 0 -1.359375 0.546875q-0.546875 0.53125 -0.609375 1.4375zm6.0843506 0.671875q0 -1.921875 1.078125 -2.84375q0.890625 -0.765625 2.171875 -0.765625q1.421875 0 2.328125 0.9375q0.90625 0.921875 0.90625 2.578125q0 1.328125 -0.40625 2.09375q-0.390625 0.765625 -1.15625 1.1875q-0.765625 0.421875 -1.671875 0.421875q-1.453125 0 -2.359375 -0.921875q-0.890625 -0.9375 -0.890625 -2.6875zm1.203125 0q0 1.328125 0.578125 1.984375q0.59375 0.65625 1.46875 0.65625q0.875 0 1.453125 -0.65625q0.578125 -0.671875 0.578125 -2.03125q0 -1.28125 -0.59375 -1.9375q-0.578125 -0.65625 -1.4375 -0.65625q-0.875 0 -1.46875 0.65625q-0.578125 0.65625 -0.578125 1.984375zm6.6468506 3.453125l0 -6.90625l1.0625 0l0 0.984375q0.75 -1.140625 2.1875 -1.140625q0.625 0 1.15625 0.21875q0.53125 0.21875 0.78125 0.59375q0.265625 0.359375 0.375 0.859375q0.0625 0.328125 0.0625 1.140625l0 4.25l-1.171875 0l0 -4.203125q0 -0.71875 -0.140625 -1.0625q-0.140625 -0.359375 -0.484375 -0.5625q-0.34375 -0.21875 -0.8125 -0.21875q-0.75 0 -1.296875 0.46875q-0.546875 0.46875 -0.546875 1.796875l0 3.78125l-1.171875 0zm12.146851 -2.21875l1.203125 0.140625q-0.28125 1.0625 -1.0625 1.65625q-0.765625 0.578125 -1.96875 0.578125q-1.515625 0 -2.40625 -0.9375q-0.890625 -0.9375 -0.890625 -2.609375q0 -1.75 0.890625 -2.703125q0.90625 -0.96875 2.34375 -0.96875q1.390625 0 2.265625 0.9375q0.875 0.9375 0.875 2.65625q0 0.109375 0 0.3125l-5.15625 0q0.0625 1.140625 0.640625 1.75q0.578125 0.59375 1.4375 0.59375q0.65625 0 1.109375 -0.328125q0.453125 -0.34375 0.71875 -1.078125zm-3.84375 -1.90625l3.859375 0q-0.078125 -0.859375 -0.4375 -1.296875q-0.5625 -0.6875 -1.453125 -0.6875q-0.8125 0 -1.359375 0.546875q-0.546875 0.53125 -0.609375 1.4375z" fill-rule="nonzero"/><path fill="#ffffff" d="m253.6063 336.40945l0 0c0 -14.585541 18.980316 -26.409454 42.393707 -26.409454l0 0c23.413391 0 42.393707 11.823914 42.393707 26.409454l0 0c0 14.585541 -18.980316 26.409454 -42.393707 26.409454l0 0c-23.413391 0 -42.393707 -11.823914 -42.393707 -26.409454z" fill-rule="evenodd"/><path stroke="#000000" stroke-width="1.0" stroke-linejoin="round" stroke-linecap="butt" d="m253.6063 336.40945l0 0c0 -14.585541 18.980316 -26.409454 42.393707 -26.409454l0 0c23.413391 0 42.393707 11.823914 42.393707 26.409454l0 0c0 14.585541 -18.980316 26.409454 -42.393707 26.409454l0 0c-23.413391 0 -42.393707 -11.823914 -42.393707 -26.409454z" fill-rule="evenodd"/><path fill="#000000" d="m281.03015 330.14694l1.203125 -0.109375q0.078125 0.71875 0.390625 1.1875q0.3125 0.453125 0.953125 0.734375q0.65625 0.28125 1.46875 0.28125q0.71875 0 1.265625 -0.21875q0.5625 -0.21875 0.828125 -0.578125q0.265625 -0.375 0.265625 -0.828125q0 -0.453125 -0.265625 -0.78125q-0.25 -0.328125 -0.84375 -0.5625q-0.390625 -0.15625 -1.703125 -0.46875q-1.3125 -0.3125 -1.84375 -0.59375q-0.671875 -0.359375 -1.015625 -0.890625q-0.328125 -0.53125 -0.328125 -1.1875q0 -0.71875 0.40625 -1.34375q0.40625 -0.625 1.1875 -0.953125q0.796875 -0.328125 1.765625 -0.328125q1.046875 0 1.859375 0.34375q0.8125 0.34375 1.25 1.015625q0.4375 0.65625 0.46875 1.484375l-1.203125 0.09375q-0.109375 -0.90625 -0.671875 -1.359375q-0.5625 -0.46875 -1.65625 -0.46875q-1.140625 0 -1.671875 0.421875q-0.515625 0.421875 -0.515625 1.015625q0 0.515625 0.359375 0.84375q0.375 0.328125 1.90625 0.6875q1.546875 0.34375 2.109375 0.59375q0.84375 0.390625 1.234375 0.984375q0.390625 0.578125 0.390625 1.359375q0 0.75 -0.4375 1.4375q-0.421875 0.671875 -1.25 1.046875q-0.8125 0.359375 -1.828125 0.359375q-1.296875 0 -2.171875 -0.375q-0.875 -0.375 -1.375 -1.125q-0.5 -0.765625 -0.53125 -1.71875zm13.9053955 0.84375l1.203125 0.140625q-0.28125 1.0625 -1.0625 1.65625q-0.765625 0.578125 -1.96875 0.578125q-1.515625 0 -2.40625 -0.9375q-0.890625 -0.9375 -0.890625 -2.609375q0 -1.75 0.890625 -2.703125q0.90625 -0.96875 2.34375 -0.96875q1.390625 0 2.265625 0.9375q0.875 0.9375 0.875 2.65625q0 0.109375 0 0.3125l-5.15625 0q0.0625 1.140625 0.640625 1.75q0.578125 0.59375 1.4375 0.59375q0.65625 0 1.109375 -0.328125q0.453125 -0.34375 0.71875 -1.078125zm-3.84375 -1.90625l3.859375 0q-0.078125 -0.859375 -0.4375 -1.296875q-0.5625 -0.6875 -1.453125 -0.6875q-0.8125 0 -1.359375 0.546875q-0.546875 0.53125 -0.609375 1.4375zm6.5218506 4.125l0 -6.90625l1.0625 0l0 0.984375q0.75 -1.140625 2.1875 -1.140625q0.625 0 1.15625 0.21875q0.53125 0.21875 0.78125 0.59375q0.265625 0.359375 0.375 0.859375q0.0625 0.328125 0.0625 1.140625l0 4.25l-1.171875 0l0 -4.203125q0 -0.71875 -0.140625 -1.0625q-0.140625 -0.359375 -0.484375 -0.5625q-0.34375 -0.21875 -0.8125 -0.21875q-0.75 0 -1.296875 0.46875q-0.546875 0.46875 -0.546875 1.796875l0 3.78125l-1.171875 0zm11.896851 0l0 -0.875q-0.65625 1.03125 -1.9375 1.03125q-0.8125 0 -1.515625 -0.453125q-0.6875 -0.453125 -1.078125 -1.265625q-0.375 -0.828125 -0.375 -1.890625q0 -1.03125 0.34375 -1.875q0.34375 -0.84375 1.03125 -1.28125q0.703125 -0.453125 1.546875 -0.453125q0.625 0 1.109375 0.265625q0.5 0.25 0.796875 0.671875l0 -3.421875l1.171875 0l0 9.546875l-1.09375 0zm-3.703125 -3.453125q0 1.328125 0.5625 1.984375q0.5625 0.65625 1.328125 0.65625q0.765625 0 1.296875 -0.625q0.53125 -0.625 0.53125 -1.90625q0 -1.421875 -0.546875 -2.078125q-0.546875 -0.671875 -1.34375 -0.671875q-0.78125 0 -1.3125 0.640625q-0.515625 0.625 -0.515625 2.0z" fill-rule="nonzero"/><path fill="#000000" d="m281.09998 349.20944l0 -9.546875l3.28125 0q1.109375 0 1.703125 0.140625q0.8125 0.1875 1.390625 0.6875q0.765625 0.640625 1.140625 1.640625q0.375 0.984375 0.375 2.25q0 1.09375 -0.265625 1.9375q-0.25 0.828125 -0.65625 1.390625q-0.390625 0.546875 -0.859375 0.859375q-0.46875 0.3125 -1.140625 0.484375q-0.65625 0.15625 -1.53125 0.15625l-3.4375 0zm1.265625 -1.125l2.03125 0q0.9375 0 1.46875 -0.171875q0.546875 -0.1875 0.875 -0.5q0.4375 -0.453125 0.6875 -1.203125q0.25 -0.765625 0.25 -1.84375q0 -1.5 -0.5 -2.296875q-0.484375 -0.8125 -1.1875 -1.078125q-0.5 -0.203125 -1.625 -0.203125l-2.0 0l0 7.296875zm7.7657776 -2.328125q0 -1.921875 1.078125 -2.84375q0.890625 -0.765625 2.171875 -0.765625q1.421875 0 2.328125 0.9375q0.90625 0.921875 0.90625 2.578125q0 1.328125 -0.40625 2.09375q-0.390625 0.765625 -1.15625 1.1875q-0.765625 0.421875 -1.671875 0.421875q-1.453125 0 -2.359375 -0.921875q-0.890625 -0.9375 -0.890625 -2.6875zm1.203125 0q0 1.328125 0.578125 1.984375q0.59375 0.65625 1.46875 0.65625q0.875 0 1.453125 -0.65625q0.578125 -0.671875 0.578125 -2.03125q0 -1.28125 -0.59375 -1.9375q-0.578125 -0.65625 -1.4375 -0.65625q-0.875 0 -1.46875 0.65625q-0.578125 0.65625 -0.578125 1.984375zm6.6468506 3.453125l0 -6.90625l1.0625 0l0 0.984375q0.75 -1.140625 2.1875 -1.140625q0.625 0 1.15625 0.21875q0.53125 0.21875 0.78125 0.59375q0.265625 0.359375 0.375 0.859375q0.0625 0.328125 0.0625 1.140625l0 4.25l-1.171875 0l0 -4.203125q0 -0.71875 -0.140625 -1.0625q-0.140625 -0.359375 -0.484375 -0.5625q-0.34375 -0.21875 -0.8125 -0.21875q-0.75 0 -1.296875 0.46875q-0.546875 0.46875 -0.546875 1.796875l0 3.78125l-1.171875 0zm12.146851 -2.21875l1.203125 0.140625q-0.28125 1.0625 -1.0625 1.65625q-0.765625 0.578125 -1.96875 0.578125q-1.515625 0 -2.40625 -0.9375q-0.890625 -0.9375 -0.890625 -2.609375q0 -1.75 0.890625 -2.703125q0.90625 -0.96875 2.34375 -0.96875q1.390625 0 2.265625 0.9375q0.875 0.9375 0.875 2.65625q0 0.109375 0 0.3125l-5.15625 0q0.0625 1.140625 0.640625 1.75q0.578125 0.59375 1.4375 0.59375q0.65625 0 1.109375 -0.328125q0.453125 -0.34375 0.71875 -1.078125zm-3.84375 -1.90625l3.859375 0q-0.078125 -0.859375 -0.4375 -1.296875q-0.5625 -0.6875 -1.453125 -0.6875q-0.8125 0 -1.359375 0.546875q-0.546875 0.53125 -0.609375 1.4375z" fill-rule="nonzero"/><path fill="#000000" fill-opacity="0.0" d="m546.91077 111.20735l-180.0315 71.30708" fill-rule="evenodd"/><path stroke="#000000" stroke-width="1.0" stroke-linejoin="round" stroke-linecap="butt" stroke-dasharray="4.0,3.0" d="m546.91077 111.20735l-174.45312 69.097595" fill-rule="evenodd"/><path fill="#000000" stroke="#000000" stroke-width="1.0" stroke-linecap="butt" d="m371.8494 178.76929l-3.610962 3.2068024l4.8274536 -0.13548279z" fill-rule="evenodd"/><path fill="#000000" fill-opacity="0.0" d="m546.91077 111.20735l5.102356 198.80315" fill-rule="evenodd"/><path stroke="#000000" stroke-width="1.0" stroke-linejoin="round" stroke-linecap="butt" stroke-dasharray="4.0,3.0" d="m546.91077 111.20735l4.9484253 192.80513" fill-rule="evenodd"/><path fill="#000000" stroke="#000000" stroke-width="1.0" stroke-linecap="butt" d="m550.208 304.05484l1.7675781 4.494232l1.53479 -4.5789795z" fill-rule="evenodd"/><path fill="#000000" fill-opacity="0.0" d="m324.49606 208.92914l-28.503937 101.07086" fill-rule="evenodd"/><path stroke="#000000" stroke-width="1.0" stroke-linejoin="round" stroke-linecap="butt" stroke-dasharray="4.0,3.0" d="m324.49606 208.92914l-26.875336 95.29611" fill-rule="evenodd"/><path fill="#000000" stroke="#000000" stroke-width="1.0" stroke-linecap="butt" d="m296.031 303.77692l0.35794067 4.8160706l2.8215027 -3.919403z" fill-rule="evenodd"/><path fill="#000000" fill-opacity="0.0" d="m324.49606 208.92914l227.49606 101.07086" fill-rule="evenodd"/><path stroke="#000000" stroke-width="1.0" stroke-linejoin="round" stroke-linecap="butt" stroke-dasharray="4.0,3.0" d="m324.49606 208.92914l222.01285 98.634796" fill-rule="evenodd"/><path fill="#000000" stroke="#000000" stroke-width="1.0" stroke-linecap="butt" d="m545.8383 309.07343l4.81781 0.33303833l-3.4766235 -3.3519897z" fill-rule="evenodd"/><path fill="#ffffff" d="m250.10236 429.40158l0 0c0 -9.549744 10.195221 -17.291351 22.771667 -17.291351l0 0c12.576416 0 22.771637 7.7416077 22.771637 17.291351l0 0c0 9.549744 -10.195221 17.29132 -22.771637 17.29132l0 0c-12.576447 0 -22.771667 -7.741577 -22.771667 -17.29132z" fill-rule="evenodd"/><path stroke="#000000" stroke-width="1.0" stroke-linejoin="round" stroke-linecap="butt" d="m250.10236 429.40158l0 0c0 -9.549744 10.195221 -17.291351 22.771667 -17.291351l0 0c12.576416 0 22.771637 7.7416077 22.771637 17.291351l0 0c0 9.549744 -10.195221 17.29132 -22.771637 17.29132l0 0c-12.576447 0 -22.771667 -7.741577 -22.771667 -17.29132z" fill-rule="evenodd"/><path fill="#000000" d="m274.5584 433.3422q-0.65625 0.5625 -1.265625 0.796875q-0.59375 0.21875 -1.28125 0.21875q-1.140625 0 -1.75 -0.546875q-0.609375 -0.5625 -0.609375 -1.4375q0 -0.5 0.21875 -0.921875q0.234375 -0.421875 0.609375 -0.671875q0.375 -0.25 0.84375 -0.390625q0.34375 -0.078125 1.046875 -0.171875q1.421875 -0.171875 2.09375 -0.40625q0 -0.234375 0 -0.296875q0 -0.71875 -0.328125 -1.015625q-0.453125 -0.390625 -1.34375 -0.390625q-0.8125 0 -1.21875 0.296875q-0.390625 0.28125 -0.578125 1.015625l-1.140625 -0.15625q0.15625 -0.734375 0.515625 -1.1875q0.359375 -0.453125 1.03125 -0.6875q0.671875 -0.25 1.5625 -0.25q0.890625 0 1.4375 0.203125q0.5625 0.203125 0.8125 0.53125q0.265625 0.3125 0.375 0.796875q0.046875 0.296875 0.046875 1.078125l0 1.5625q0 1.625 0.078125 2.0625q0.078125 0.4375 0.296875 0.828125l-1.21875 0q-0.1875 -0.359375 -0.234375 -0.859375zm-0.09375 -2.609375q-0.640625 0.265625 -1.921875 0.4375q-0.71875 0.109375 -1.015625 0.25q-0.296875 0.125 -0.46875 0.375q-0.15625 0.25 -0.15625 0.546875q0 0.46875 0.34375 0.78125q0.359375 0.3125 1.046875 0.3125q0.671875 0 1.203125 -0.296875q0.53125 -0.296875 0.78125 -0.8125q0.1875 -0.390625 0.1875 -1.171875l0 -0.421875z" fill-rule="nonzero"/><path fill="#000000" fill-opacity="0.0" d="m295.64566 429.40158l31.811035 0" fill-rule="evenodd"/><path stroke="#000000" stroke-width="1.0" stroke-linejoin="round" stroke-linecap="butt" stroke-dasharray="4.0,3.0" d="m295.64566 429.40158l25.811035 0" fill-rule="evenodd"/><path fill="#000000" stroke="#000000" stroke-width="1.0" stroke-linecap="butt" d="m321.4567 431.0533l4.538086 -1.6517334l-4.538086 -1.6517334z" fill-rule="evenodd"/><path fill="#ffffff" d="m327.47208 429.40158l0 0c0 -9.549744 10.195221 -17.291351 22.771637 -17.291351l0 0c12.576447 0 22.771667 7.7416077 22.771667 17.291351l0 0c0 9.549744 -10.195221 17.29132 -22.771667 17.29132l0 0c-12.576416 0 -22.771637 -7.741577 -22.771637 -17.29132z" fill-rule="evenodd"/><path stroke="#000000" stroke-width="1.0" stroke-linejoin="round" stroke-linecap="butt" d="m327.47208 429.40158l0 0c0 -9.549744 10.195221 -17.291351 22.771637 -17.291351l0 0c12.576447 0 22.771667 7.7416077 22.771667 17.291351l0 0c0 9.549744 -10.195221 17.29132 -22.771667 17.29132l0 0c-12.576416 0 -22.771637 -7.741577 -22.771637 -17.29132z" fill-rule="evenodd"/><path fill="#000000" d="m348.4906 434.20157l-1.078125 0l0 -9.546875l1.171875 0l0 3.40625q0.734375 -0.921875 1.890625 -0.921875q0.640625 0 1.203125 0.265625q0.578125 0.25 0.9375 0.71875q0.375 0.453125 0.578125 1.109375q0.203125 0.65625 0.203125 1.40625q0 1.78125 -0.875 2.75q-0.875 0.96875 -2.109375 0.96875q-1.21875 0 -1.921875 -1.015625l0 0.859375zm0 -3.5q0 1.234375 0.328125 1.78125q0.5625 0.90625 1.5 0.90625q0.765625 0 1.328125 -0.65625q0.5625 -0.671875 0.5625 -2.0q0 -1.34375 -0.546875 -1.984375q-0.53125 -0.65625 -1.296875 -0.65625q-0.765625 0 -1.328125 0.671875q-0.546875 0.671875 -0.546875 1.9375z" fill-rule="nonzero"/><path fill="#000000" fill-opacity="0.0" d="m365.0105 411.62204l353.85828 0l0 35.55905l-353.85828 0z" fill-rule="evenodd"/><path fill="#000000" d="m375.21362 427.84393l0 -1.328125l1.328125 0l0 1.328125l-1.328125 0zm0 5.578125l0 -1.328125l1.328125 0l0 1.328125l-1.328125 0zm7.0622253 0l0 -6.90625l1.0625 0l0 1.046875q0.40625 -0.734375 0.734375 -0.96875q0.34375 -0.234375 0.765625 -0.234375q0.59375 0 1.203125 0.375l-0.40625 1.078125q-0.4375 -0.25 -0.859375 -0.25q-0.390625 0 -0.703125 0.234375q-0.296875 0.234375 -0.421875 0.640625q-0.203125 0.625 -0.203125 1.359375l0 3.625l-1.171875 0zm9.188385 -2.21875l1.203125 0.140625q-0.28125 1.0625 -1.0625 1.65625q-0.765625 0.578125 -1.96875 0.578125q-1.515625 0 -2.40625 -0.9375q-0.890625 -0.9375 -0.890625 -2.609375q0 -1.75 0.890625 -2.703125q0.90625 -0.96875 2.34375 -0.96875q1.390625 0 2.265625 0.9375q0.875 0.9375 0.875 2.65625q0 0.109375 0 0.3125l-5.15625 0q0.0625 1.140625 0.640625 1.75q0.578125 0.59375 1.4375 0.59375q0.65625 0 1.109375 -0.328125q0.453125 -0.34375 0.71875 -1.078125zm-3.84375 -1.90625l3.859375 0q-0.078125 -0.859375 -0.4375 -1.296875q-0.5625 -0.6875 -1.453125 -0.6875q-0.8125 0 -1.359375 0.546875q-0.546875 0.53125 -0.609375 1.4375zm6.5218506 6.78125l0 -9.5625l1.078125 0l0 0.890625q0.375 -0.53125 0.84375 -0.78125q0.484375 -0.265625 1.15625 -0.265625q0.875 0 1.546875 0.453125q0.6875 0.453125 1.03125 1.28125q0.34375 0.828125 0.34375 1.828125q0 1.046875 -0.375 1.90625q-0.375 0.84375 -1.109375 1.296875q-0.71875 0.453125 -1.53125 0.453125q-0.578125 0 -1.046875 -0.25q-0.46875 -0.25 -0.765625 -0.625l0 3.375l-1.171875 0zm1.0625 -6.078125q0 1.34375 0.53125 1.984375q0.546875 0.625 1.3125 0.625q0.78125 0 1.34375 -0.65625q0.5625 -0.65625 0.5625 -2.046875q0 -1.3125 -0.546875 -1.96875q-0.546875 -0.671875 -1.296875 -0.671875q-0.75 0 -1.328125 0.703125q-0.578125 0.703125 -0.578125 2.03125zm6.3343506 3.421875l0 -6.90625l1.0625 0l0 1.046875q0.40625 -0.734375 0.734375 -0.96875q0.34375 -0.234375 0.765625 -0.234375q0.59375 0 1.203125 0.375l-0.40625 1.078125q-0.4375 -0.25 -0.859375 -0.25q-0.390625 0 -0.703125 0.234375q-0.296875 0.234375 -0.421875 0.640625q-0.203125 0.625 -0.203125 1.359375l0 3.625l-1.171875 0zm9.1883545 -2.21875l1.203125 0.140625q-0.28125 1.0625 -1.0625 1.65625q-0.765625 0.578125 -1.96875 0.578125q-1.515625 0 -2.40625 -0.9375q-0.890625 -0.9375 -0.890625 -2.609375q0 -1.75 0.890625 -2.703125q0.90625 -0.96875 2.34375 -0.96875q1.390625 0 2.265625 0.9375q0.875 0.9375 0.875 2.65625q0 0.109375 0 0.3125l-5.15625 0q0.0625 1.140625 0.640625 1.75q0.578125 0.59375 1.4375 0.59375q0.65625 0 1.109375 -0.328125q0.453125 -0.34375 0.71875 -1.078125zm-3.84375 -1.90625l3.859375 0q-0.078125 -0.859375 -0.4375 -1.296875q-0.5625 -0.6875 -1.453125 -0.6875q-0.8125 0 -1.359375 0.546875q-0.546875 0.53125 -0.609375 1.4375zm6.0531006 2.0625l1.15625 -0.1875q0.109375 0.703125 0.546875 1.078125q0.453125 0.359375 1.25 0.359375q0.8125 0 1.203125 -0.328125q0.390625 -0.328125 0.390625 -0.765625q0 -0.390625 -0.359375 -0.625q-0.234375 -0.15625 -1.1875 -0.390625q-1.296875 -0.328125 -1.796875 -0.5625q-0.484375 -0.25 -0.75 -0.65625q-0.25 -0.421875 -0.25 -0.9375q0 -0.453125 0.203125 -0.84375q0.21875 -0.40625 0.578125 -0.671875q0.28125 -0.1875 0.75 -0.328125q0.46875 -0.140625 1.015625 -0.140625q0.8125 0 1.421875 0.234375q0.609375 0.234375 0.90625 0.640625q0.296875 0.390625 0.40625 1.0625l-1.140625 0.15625q-0.078125 -0.53125 -0.453125 -0.828125q-0.375 -0.3125 -1.0625 -0.3125q-0.8125 0 -1.15625 0.265625q-0.34375 0.265625 -0.34375 0.625q0 0.234375 0.140625 0.421875q0.15625 0.1875 0.453125 0.3125q0.171875 0.0625 1.03125 0.296875q1.25 0.328125 1.734375 0.546875q0.5 0.203125 0.78125 0.609375q0.28125 0.40625 0.28125 1.0q0 0.59375 -0.34375 1.109375q-0.34375 0.515625 -1.0 0.796875q-0.640625 0.28125 -1.453125 0.28125q-1.34375 0 -2.046875 -0.5625q-0.703125 -0.5625 -0.90625 -1.65625zm11.8671875 -0.15625l1.203125 0.140625q-0.28125 1.0625 -1.0625 1.65625q-0.765625 0.578125 -1.96875 0.578125q-1.515625 0 -2.40625 -0.9375q-0.890625 -0.9375 -0.890625 -2.609375q0 -1.75 0.890625 -2.703125q0.90625 -0.96875 2.34375 -0.96875q1.390625 0 2.265625 0.9375q0.875 0.9375 0.875 2.65625q0 0.109375 0 0.3125l-5.15625 0q0.0625 1.140625 0.640625 1.75q0.578125 0.59375 1.4375 0.59375q0.65625 0 1.109375 -0.328125q0.453125 -0.34375 0.71875 -1.078125zm-3.84375 -1.90625l3.859375 0q-0.078125 -0.859375 -0.4375 -1.296875q-0.5625 -0.6875 -1.453125 -0.6875q-0.8125 0 -1.359375 0.546875q-0.546875 0.53125 -0.609375 1.4375zm6.5218506 4.125l0 -6.90625l1.0625 0l0 0.984375q0.75 -1.140625 2.1875 -1.140625q0.625 0 1.15625 0.21875q0.53125 0.21875 0.78125 0.59375q0.265625 0.359375 0.375 0.859375q0.0625 0.328125 0.0625 1.140625l0 4.25l-1.171875 0l0 -4.203125q0 -0.71875 -0.140625 -1.0625q-0.140625 -0.359375 -0.484375 -0.5625q-0.34375 -0.21875 -0.8125 -0.21875q-0.75 0 -1.296875 0.46875q-0.546875 0.46875 -0.546875 1.796875l0 3.78125l-1.171875 0zm9.974976 -1.046875l0.171875 1.03125q-0.5 0.109375 -0.890625 0.109375q-0.640625 0 -1.0 -0.203125q-0.34375 -0.203125 -0.484375 -0.53125q-0.140625 -0.328125 -0.140625 -1.390625l0 -3.96875l-0.859375 0l0 -0.90625l0.859375 0l0 -1.71875l1.171875 -0.703125l0 2.421875l1.171875 0l0 0.90625l-1.171875 0l0 4.046875q0 0.5 0.046875 0.640625q0.0625 0.140625 0.203125 0.234375q0.140625 0.078125 0.40625 0.078125q0.203125 0 0.515625 -0.046875zm0.6717529 -1.015625l1.15625 -0.1875q0.109375 0.703125 0.546875 1.078125q0.453125 0.359375 1.25 0.359375q0.8125 0 1.203125 -0.328125q0.390625 -0.328125 0.390625 -0.765625q0 -0.390625 -0.359375 -0.625q-0.234375 -0.15625 -1.1875 -0.390625q-1.296875 -0.328125 -1.796875 -0.5625q-0.484375 -0.25 -0.75 -0.65625q-0.25 -0.421875 -0.25 -0.9375q0 -0.453125 0.203125 -0.84375q0.21875 -0.40625 0.578125 -0.671875q0.28125 -0.1875 0.75 -0.328125q0.46875 -0.140625 1.015625 -0.140625q0.8125 0 1.421875 0.234375q0.609375 0.234375 0.90625 0.640625q0.296875 0.390625 0.40625 1.0625l-1.140625 0.15625q-0.078125 -0.53125 -0.453125 -0.828125q-0.375 -0.3125 -1.0625 -0.3125q-0.8125 0 -1.15625 0.265625q-0.34375 0.265625 -0.34375 0.625q0 0.234375 0.140625 0.421875q0.15625 0.1875 0.453125 0.3125q0.171875 0.0625 1.03125 0.296875q1.25 0.328125 1.734375 0.546875q0.5 0.203125 0.78125 0.609375q0.28125 0.40625 0.28125 1.0q0 0.59375 -0.34375 1.109375q-0.34375 0.515625 -1.0 0.796875q-0.640625 0.28125 -1.453125 0.28125q-1.34375 0 -2.046875 -0.5625q-0.703125 -0.5625 -0.90625 -1.65625zm10.835785 2.0625l0 -9.546875l1.171875 0l0 3.421875q0.828125 -0.9375 2.078125 -0.9375q0.765625 0 1.328125 0.296875q0.5625 0.296875 0.8125 0.84375q0.25 0.53125 0.25 1.546875l0 4.375l-1.171875 0l0 -4.375q0 -0.890625 -0.390625 -1.28125q-0.375 -0.40625 -1.078125 -0.40625q-0.515625 0 -0.984375 0.28125q-0.453125 0.265625 -0.65625 0.734375q-0.1875 0.453125 -0.1875 1.265625l0 3.78125l-1.171875 0zm11.928101 -0.859375q-0.65625 0.5625 -1.265625 0.796875q-0.59375 0.21875 -1.28125 0.21875q-1.140625 0 -1.75 -0.546875q-0.609375 -0.5625 -0.609375 -1.4375q0 -0.5 0.21875 -0.921875q0.234375 -0.421875 0.609375 -0.671875q0.375 -0.25 0.84375 -0.390625q0.34375 -0.078125 1.046875 -0.171875q1.421875 -0.171875 2.09375 -0.40625q0 -0.234375 0 -0.296875q0 -0.71875 -0.328125 -1.015625q-0.453125 -0.390625 -1.34375 -0.390625q-0.8125 0 -1.21875 0.296875q-0.390625 0.28125 -0.578125 1.015625l-1.140625 -0.15625q0.15625 -0.734375 0.515625 -1.1875q0.359375 -0.453125 1.03125 -0.6875q0.671875 -0.25 1.5625 -0.25q0.890625 0 1.4375 0.203125q0.5625 0.203125 0.8125 0.53125q0.265625 0.3125 0.375 0.796875q0.046875 0.296875 0.046875 1.078125l0 1.5625q0 1.625 0.078125 2.0625q0.078125 0.4375 0.296875 0.828125l-1.21875 0q-0.1875 -0.359375 -0.234375 -0.859375zm-0.09375 -2.609375q-0.640625 0.265625 -1.921875 0.4375q-0.71875 0.109375 -1.015625 0.25q-0.296875 0.125 -0.46875 0.375q-0.15625 0.25 -0.15625 0.546875q0 0.46875 0.34375 0.78125q0.359375 0.3125 1.046875 0.3125q0.671875 0 1.203125 -0.296875q0.53125 -0.296875 0.78125 -0.8125q0.1875 -0.390625 0.1875 -1.171875l0 -0.421875zm2.9906006 6.125l0 -9.5625l1.078125 0l0 0.890625q0.375 -0.53125 0.84375 -0.78125q0.484375 -0.265625 1.15625 -0.265625q0.875 0 1.546875 0.453125q0.6875 0.453125 1.03125 1.28125q0.34375 0.828125 0.34375 1.828125q0 1.046875 -0.375 1.90625q-0.375 0.84375 -1.109375 1.296875q-0.71875 0.453125 -1.53125 0.453125q-0.578125 0 -1.046875 -0.25q-0.46875 -0.25 -0.765625 -0.625l0 3.375l-1.171875 0zm1.0625 -6.078125q0 1.34375 0.53125 1.984375q0.546875 0.625 1.3125 0.625q0.78125 0 1.34375 -0.65625q0.5625 -0.65625 0.5625 -2.046875q0 -1.3125 -0.546875 -1.96875q-0.546875 -0.671875 -1.296875 -0.671875q-0.75 0 -1.328125 0.703125q-0.578125 0.703125 -0.578125 2.03125zm6.3499756 6.078125l0 -9.5625l1.078125 0l0 0.890625q0.375 -0.53125 0.84375 -0.78125q0.484375 -0.265625 1.15625 -0.265625q0.875 0 1.546875 0.453125q0.6875 0.453125 1.03125 1.28125q0.34375 0.828125 0.34375 1.828125q0 1.046875 -0.375 1.90625q-0.375 0.84375 -1.109375 1.296875q-0.71875 0.453125 -1.53125 0.453125q-0.578125 0 -1.046875 -0.25q-0.46875 -0.25 -0.765625 -0.625l0 3.375l-1.171875 0zm1.0625 -6.078125q0 1.34375 0.53125 1.984375q0.546875 0.625 1.3125 0.625q0.78125 0 1.34375 -0.65625q0.5625 -0.65625 0.5625 -2.046875q0 -1.3125 -0.546875 -1.96875q-0.546875 -0.671875 -1.296875 -0.671875q-0.75 0 -1.328125 0.703125q-0.578125 0.703125 -0.578125 2.03125zm11.084351 1.203125l1.203125 0.140625q-0.28125 1.0625 -1.0625 1.65625q-0.765625 0.578125 -1.96875 0.578125q-1.515625 0 -2.40625 -0.9375q-0.890625 -0.9375 -0.890625 -2.609375q0 -1.75 0.890625 -2.703125q0.90625 -0.96875 2.34375 -0.96875q1.390625 0 2.265625 0.9375q0.875 0.9375 0.875 2.65625q0 0.109375 0 0.3125l-5.15625 0q0.0625 1.140625 0.640625 1.75q0.578125 0.59375 1.4375 0.59375q0.65625 0 1.109375 -0.328125q0.453125 -0.34375 0.71875 -1.078125zm-3.84375 -1.90625l3.859375 0q-0.078125 -0.859375 -0.4375 -1.296875q-0.5625 -0.6875 -1.453125 -0.6875q-0.8125 0 -1.359375 0.546875q-0.546875 0.53125 -0.609375 1.4375zm6.5218506 4.125l0 -6.90625l1.0625 0l0 0.984375q0.75 -1.140625 2.1875 -1.140625q0.625 0 1.15625 0.21875q0.53125 0.21875 0.78125 0.59375q0.265625 0.359375 0.375 0.859375q0.0625 0.328125 0.0625 1.140625l0 4.25l-1.171875 0l0 -4.203125q0 -0.71875 -0.140625 -1.0625q-0.140625 -0.359375 -0.484375 -0.5625q-0.34375 -0.21875 -0.8125 -0.21875q-0.75 0 -1.296875 0.46875q-0.546875 0.46875 -0.546875 1.796875l0 3.78125l-1.171875 0zm6.9437256 -2.0625l1.15625 -0.1875q0.109375 0.703125 0.546875 1.078125q0.453125 0.359375 1.25 0.359375q0.8125 0 1.203125 -0.328125q0.390625 -0.328125 0.390625 -0.765625q0 -0.390625 -0.359375 -0.625q-0.234375 -0.15625 -1.1875 -0.390625q-1.296875 -0.328125 -1.796875 -0.5625q-0.484375 -0.25 -0.75 -0.65625q-0.25 -0.421875 -0.25 -0.9375q0 -0.453125 0.203125 -0.84375q0.21875 -0.40625 0.578125 -0.671875q0.28125 -0.1875 0.75 -0.328125q0.46875 -0.140625 1.015625 -0.140625q0.8125 0 1.421875 0.234375q0.609375 0.234375 0.90625 0.640625q0.296875 0.390625 0.40625 1.0625l-1.140625 0.15625q-0.078125 -0.53125 -0.453125 -0.828125q-0.375 -0.3125 -1.0625 -0.3125q-0.8125 0 -1.15625 0.265625q-0.34375 0.265625 -0.34375 0.625q0 0.234375 0.140625 0.421875q0.15625 0.1875 0.453125 0.3125q0.171875 0.0625 1.03125 0.296875q1.25 0.328125 1.734375 0.546875q0.5 0.203125 0.78125 0.609375q0.28125 0.40625 0.28125 1.0q0 0.59375 -0.34375 1.109375q-0.34375 0.515625 -1.0 0.796875q-0.640625 0.28125 -1.453125 0.28125q-1.34375 0 -2.046875 -0.5625q-0.703125 -0.5625 -0.90625 -1.65625zm6.6796875 -0.796875l0 -1.1875l3.59375 0l0 1.1875l-3.59375 0zm5.969635 2.859375l-1.078125 0l0 -9.546875l1.171875 0l0 3.40625q0.734375 -0.921875 1.890625 -0.921875q0.640625 0 1.203125 0.265625q0.578125 0.25 0.9375 0.71875q0.375 0.453125 0.578125 1.109375q0.203125 0.65625 0.203125 1.40625q0 1.78125 -0.875 2.75q-0.875 0.96875 -2.109375 0.96875q-1.21875 0 -1.921875 -1.015625l0 0.859375zm0 -3.5q0 1.234375 0.328125 1.78125q0.5625 0.90625 1.5 0.90625q0.765625 0 1.328125 -0.65625q0.5625 -0.671875 0.5625 -2.0q0 -1.34375 -0.546875 -1.984375q-0.53125 -0.65625 -1.296875 -0.65625q-0.765625 0 -1.328125 0.671875q-0.546875 0.671875 -0.546875 1.9375zm11.068726 1.28125l1.203125 0.140625q-0.28125 1.0625 -1.0625 1.65625q-0.765625 0.578125 -1.96875 0.578125q-1.515625 0 -2.40625 -0.9375q-0.890625 -0.9375 -0.890625 -2.609375q0 -1.75 0.890625 -2.703125q0.90625 -0.96875 2.34375 -0.96875q1.390625 0 2.265625 0.9375q0.875 0.9375 0.875 2.65625q0 0.109375 0 0.3125l-5.15625 0q0.0625 1.140625 0.640625 1.75q0.578125 0.59375 1.4375 0.59375q0.65625 0 1.109375 -0.328125q0.453125 -0.34375 0.71875 -1.078125zm-3.84375 -1.90625l3.859375 0q-0.078125 -0.859375 -0.4375 -1.296875q-0.5625 -0.6875 -1.453125 -0.6875q-0.8125 0 -1.359375 0.546875q-0.546875 0.53125 -0.609375 1.4375zm6.8031006 4.125l0 -6.0l-1.03125 0l0 -0.90625l1.03125 0l0 -0.734375q0 -0.703125 0.125 -1.046875q0.171875 -0.453125 0.59375 -0.734375q0.421875 -0.28125 1.203125 -0.28125q0.484375 0 1.09375 0.109375l-0.1875 1.03125q-0.359375 -0.0625 -0.6875 -0.0625q-0.53125 0 -0.75 0.234375q-0.21875 0.21875 -0.21875 0.84375l0 0.640625l1.34375 0l0 0.90625l-1.34375 0l0 6.0l-1.171875 0zm2.984253 -3.453125q0 -1.921875 1.078125 -2.84375q0.890625 -0.765625 2.171875 -0.765625q1.421875 0 2.328125 0.9375q0.90625 0.921875 0.90625 2.578125q0 1.328125 -0.40625 2.09375q-0.390625 0.765625 -1.15625 1.1875q-0.765625 0.421875 -1.671875 0.421875q-1.453125 0 -2.359375 -0.921875q-0.890625 -0.9375 -0.890625 -2.6875zm1.203125 0q0 1.328125 0.578125 1.984375q0.59375 0.65625 1.46875 0.65625q0.875 0 1.453125 -0.65625q0.578125 -0.671875 0.578125 -2.03125q0 -1.28125 -0.59375 -1.9375q-0.578125 -0.65625 -1.4375 -0.65625q-0.875 0 -1.46875 0.65625q-0.578125 0.65625 -0.578125 1.984375zm6.6312256 3.453125l0 -6.90625l1.0625 0l0 1.046875q0.40625 -0.734375 0.734375 -0.96875q0.34375 -0.234375 0.765625 -0.234375q0.59375 0 1.203125 0.375l-0.40625 1.078125q-0.4375 -0.25 -0.859375 -0.25q-0.390625 0 -0.703125 0.234375q-0.296875 0.234375 -0.421875 0.640625q-0.203125 0.625 -0.203125 1.359375l0 3.625l-1.171875 0zm9.1883545 -2.21875l1.203125 0.140625q-0.28125 1.0625 -1.0625 1.65625q-0.765625 0.578125 -1.96875 0.578125q-1.515625 0 -2.40625 -0.9375q-0.890625 -0.9375 -0.890625 -2.609375q0 -1.75 0.890625 -2.703125q0.90625 -0.96875 2.34375 -0.96875q1.390625 0 2.265625 0.9375q0.875 0.9375 0.875 2.65625q0 0.109375 0 0.3125l-5.15625 0q0.0625 1.140625 0.640625 1.75q0.578125 0.59375 1.4375 0.59375q0.65625 0 1.109375 -0.328125q0.453125 -0.34375 0.71875 -1.078125zm-3.84375 -1.90625l3.859375 0q-0.078125 -0.859375 -0.4375 -1.296875q-0.5625 -0.6875 -1.453125 -0.6875q-0.8125 0 -1.359375 0.546875q-0.546875 0.53125 -0.609375 1.4375zm10.2092285 4.125l0 -6.90625l1.0625 0l0 1.046875q0.40625 -0.734375 0.734375 -0.96875q0.34375 -0.234375 0.765625 -0.234375q0.59375 0 1.203125 0.375l-0.40625 1.078125q-0.4375 -0.25 -0.859375 -0.25q-0.390625 0 -0.703125 0.234375q-0.296875 0.234375 -0.421875 0.640625q-0.203125 0.625 -0.203125 1.359375l0 3.625l-1.171875 0zm9.1883545 -2.21875l1.203125 0.140625q-0.28125 1.0625 -1.0625 1.65625q-0.765625 0.578125 -1.96875 0.578125q-1.515625 0 -2.40625 -0.9375q-0.890625 -0.9375 -0.890625 -2.609375q0 -1.75 0.890625 -2.703125q0.90625 -0.96875 2.34375 -0.96875q1.390625 0 2.265625 0.9375q0.875 0.9375 0.875 2.65625q0 0.109375 0 0.3125l-5.15625 0q0.0625 1.140625 0.640625 1.75q0.578125 0.59375 1.4375 0.59375q0.65625 0 1.109375 -0.328125q0.453125 -0.34375 0.71875 -1.078125zm-3.84375 -1.90625l3.859375 0q-0.078125 -0.859375 -0.4375 -1.296875q-0.5625 -0.6875 -1.453125 -0.6875q-0.8125 0 -1.359375 0.546875q-0.546875 0.53125 -0.609375 1.4375zm6.5062256 4.125l0 -9.546875l1.171875 0l0 9.546875l-1.171875 0zm7.4923096 -0.859375q-0.65625 0.5625 -1.265625 0.796875q-0.59375 0.21875 -1.28125 0.21875q-1.140625 0 -1.75 -0.546875q-0.609375 -0.5625 -0.609375 -1.4375q0 -0.5 0.21875 -0.921875q0.234375 -0.421875 0.609375 -0.671875q0.375 -0.25 0.84375 -0.390625q0.34375 -0.078125 1.046875 -0.171875q1.421875 -0.171875 2.09375 -0.40625q0 -0.234375 0 -0.296875q0 -0.71875 -0.328125 -1.015625q-0.453125 -0.390625 -1.34375 -0.390625q-0.8125 0 -1.21875 0.296875q-0.390625 0.28125 -0.578125 1.015625l-1.140625 -0.15625q0.15625 -0.734375 0.515625 -1.1875q0.359375 -0.453125 1.03125 -0.6875q0.671875 -0.25 1.5625 -0.25q0.890625 0 1.4375 0.203125q0.5625 0.203125 0.8125 0.53125q0.265625 0.3125 0.375 0.796875q0.046875 0.296875 0.046875 1.078125l0 1.5625q0 1.625 0.078125 2.0625q0.078125 0.4375 0.296875 0.828125l-1.21875 0q-0.1875 -0.359375 -0.234375 -0.859375zm-0.09375 -2.609375q-0.640625 0.265625 -1.921875 0.4375q-0.71875 0.109375 -1.015625 0.25q-0.296875 0.125 -0.46875 0.375q-0.15625 0.25 -0.15625 0.546875q0 0.46875 0.34375 0.78125q0.359375 0.3125 1.046875 0.3125q0.671875 0 1.203125 -0.296875q0.53125 -0.296875 0.78125 -0.8125q0.1875 -0.390625 0.1875 -1.171875l0 -0.421875zm5.5531006 2.421875l0.171875 1.03125q-0.5 0.109375 -0.890625 0.109375q-0.640625 0 -1.0 -0.203125q-0.34375 -0.203125 -0.484375 -0.53125q-0.140625 -0.328125 -0.140625 -1.390625l0 -3.96875l-0.859375 0l0 -0.90625l0.859375 0l0 -1.71875l1.171875 -0.703125l0 2.421875l1.171875 0l0 0.90625l-1.171875 0l0 4.046875q0 0.5 0.046875 0.640625q0.0625 0.140625 0.203125 0.234375q0.140625 0.078125 0.40625 0.078125q0.203125 0 0.515625 -0.046875zm1.1561279 -7.140625l0 -1.359375l1.171875 0l0 1.359375l-1.171875 0zm0 8.1875l0 -6.90625l1.171875 0l0 6.90625l-1.171875 0zm2.5079956 -3.453125q0 -1.921875 1.078125 -2.84375q0.890625 -0.765625 2.171875 -0.765625q1.421875 0 2.328125 0.9375q0.90625 0.921875 0.90625 2.578125q0 1.328125 -0.40625 2.09375q-0.390625 0.765625 -1.15625 1.1875q-0.765625 0.421875 -1.671875 0.421875q-1.453125 0 -2.359375 -0.921875q-0.890625 -0.9375 -0.890625 -2.6875zm1.203125 0q0 1.328125 0.578125 1.984375q0.59375 0.65625 1.46875 0.65625q0.875 0 1.453125 -0.65625q0.578125 -0.671875 0.578125 -2.03125q0 -1.28125 -0.59375 -1.9375q-0.578125 -0.65625 -1.4375 -0.65625q-0.875 0 -1.46875 0.65625q-0.578125 0.65625 -0.578125 1.984375zm6.6468506 3.453125l0 -6.90625l1.0625 0l0 0.984375q0.75 -1.140625 2.1875 -1.140625q0.625 0 1.15625 0.21875q0.53125 0.21875 0.78125 0.59375q0.265625 0.359375 0.375 0.859375q0.0625 0.328125 0.0625 1.140625l0 4.25l-1.171875 0l0 -4.203125q0 -0.71875 -0.140625 -1.0625q-0.140625 -0.359375 -0.484375 -0.5625q-0.34375 -0.21875 -0.8125 -0.21875q-0.75 0 -1.296875 0.46875q-0.546875 0.46875 -0.546875 1.796875l0 3.78125l-1.171875 0zm6.9437256 -2.0625l1.15625 -0.1875q0.109375 0.703125 0.546875 1.078125q0.453125 0.359375 1.25 0.359375q0.8125 0 1.203125 -0.328125q0.390625 -0.328125 0.390625 -0.765625q0 -0.390625 -0.359375 -0.625q-0.234375 -0.15625 -1.1875 -0.390625q-1.296875 -0.328125 -1.796875 -0.5625q-0.484375 -0.25 -0.75 -0.65625q-0.25 -0.421875 -0.25 -0.9375q0 -0.453125 0.203125 -0.84375q0.21875 -0.40625 0.578125 -0.671875q0.28125 -0.1875 0.75 -0.328125q0.46875 -0.140625 1.015625 -0.140625q0.8125 0 1.421875 0.234375q0.609375 0.234375 0.90625 0.640625q0.296875 0.390625 0.40625 1.0625l-1.140625 0.15625q-0.078125 -0.53125 -0.453125 -0.828125q-0.375 -0.3125 -1.0625 -0.3125q-0.8125 0 -1.15625 0.265625q-0.34375 0.265625 -0.34375 0.625q0 0.234375 0.140625 0.421875q0.15625 0.1875 0.453125 0.3125q0.171875 0.0625 1.03125 0.296875q1.25 0.328125 1.734375 0.546875q0.5 0.203125 0.78125 0.609375q0.28125 0.40625 0.28125 1.0q0 0.59375 -0.34375 1.109375q-0.34375 0.515625 -1.0 0.796875q-0.640625 0.28125 -1.453125 0.28125q-1.34375 0 -2.046875 -0.5625q-0.703125 -0.5625 -0.90625 -1.65625zm7.1328125 2.0625l0 -9.546875l1.171875 0l0 3.421875q0.828125 -0.9375 2.078125 -0.9375q0.765625 0 1.328125 0.296875q0.5625 0.296875 0.8125 0.84375q0.25 0.53125 0.25 1.546875l0 4.375l-1.171875 0l0 -4.375q0 -0.890625 -0.390625 -1.28125q-0.375 -0.40625 -1.078125 -0.40625q-0.515625 0 -0.984375 0.28125q-0.453125 0.265625 -0.65625 0.734375q-0.1875 0.453125 -0.1875 1.265625l0 3.78125l-1.171875 0zm7.4281006 -8.1875l0 -1.359375l1.171875 0l0 1.359375l-1.171875 0zm0 8.1875l0 -6.90625l1.171875 0l0 6.90625l-1.171875 0zm2.9454346 2.65625l0 -9.5625l1.078125 0l0 0.890625q0.375 -0.53125 0.84375 -0.78125q0.484375 -0.265625 1.15625 -0.265625q0.875 0 1.546875 0.453125q0.6875 0.453125 1.03125 1.28125q0.34375 0.828125 0.34375 1.828125q0 1.046875 -0.375 1.90625q-0.375 0.84375 -1.109375 1.296875q-0.71875 0.453125 -1.53125 0.453125q-0.578125 0 -1.046875 -0.25q-0.46875 -0.25 -0.765625 -0.625l0 3.375l-1.171875 0zm1.0625 -6.078125q0 1.34375 0.53125 1.984375q0.546875 0.625 1.3125 0.625q0.78125 0 1.34375 -0.65625q0.5625 -0.65625 0.5625 -2.046875q0 -1.3125 -0.546875 -1.96875q-0.546875 -0.671875 -1.296875 -0.671875q-0.75 0 -1.328125 0.703125q-0.578125 0.703125 -0.578125 2.03125zm8.426697 3.421875l3.65625 -9.546875l1.359375 0l3.90625 9.546875l-1.4375 0l-1.109375 -2.890625l-3.984375 0l-1.046875 2.890625l-1.34375 0zm2.75 -3.921875l3.234375 0l-1.0 -2.640625q-0.453125 -1.203125 -0.671875 -1.96875q-0.1875 0.90625 -0.515625 1.8125l-1.046875 2.796875zm19.24768 -1.78125q0.859375 0.953125 1.484375 1.4375q0.640625 0.484375 1.203125 0.734375l0 0.296875q-0.65625 0.3125 -1.265625 0.796875q-0.59375 0.484375 -1.4375 1.421875l-0.5 0q0.609375 -1.3125 1.28125 -2.015625l-10.375 0l0 -0.65625l10.375 0q-0.484375 -0.640625 -0.6875 -0.9375q-0.1875 -0.3125 -0.578125 -1.078125l0.5 0zm7.874878 5.703125l0 -9.546875l3.59375 0q1.09375 0 1.75 0.296875q0.65625 0.28125 1.03125 0.890625q0.375 0.609375 0.375 1.265625q0 0.609375 -0.34375 1.15625q-0.328125 0.53125 -0.984375 0.859375q0.859375 0.25 1.328125 0.875q0.46875 0.609375 0.46875 1.4375q0 0.671875 -0.296875 1.25q-0.28125 0.578125 -0.703125 0.890625q-0.40625 0.3125 -1.03125 0.46875q-0.625 0.15625 -1.546875 0.15625l-3.640625 0zm1.265625 -5.53125l2.0625 0q0.84375 0 1.203125 -0.109375q0.484375 -0.140625 0.71875 -0.46875q0.25 -0.34375 0.25 -0.84375q0 -0.46875 -0.234375 -0.828125q-0.21875 -0.359375 -0.640625 -0.5q-0.421875 -0.140625 -1.453125 -0.140625l-1.90625 0l0 2.890625zm0 4.40625l2.375 0q0.609375 0 0.859375 -0.046875q0.4375 -0.078125 0.734375 -0.25q0.296875 -0.1875 0.484375 -0.53125q0.1875 -0.359375 0.1875 -0.8125q0 -0.53125 -0.28125 -0.921875q-0.265625 -0.40625 -0.75 -0.5625q-0.484375 -0.15625 -1.40625 -0.15625l-2.203125 0l0 3.28125z" fill-rule="nonzero"/></g></svg>